<?xml version="1.0" encoding="iso-8859-1"?>
<!-- Generator: Adobe Illustrator 19.0.0, SVG Export Plug-In . SVG Version: 6.00 Build 0)  -->
<svg xmlns="http://www.w3.org/2000/svg" xmlns:xlink="http://www.w3.org/1999/xlink" version="1.1" id="Layer_1" x="0px" y="0px" viewBox="0 0 489.993 489.993" style="enable-background:new 0 0 489.993 489.993;" xml:space="preserve" width="512px" height="512px">
<g>
	<g>
		<g>
			<path d="M322.965,130.154c-12.666,0-22.968,10.303-22.968,22.968c0,12.666,10.303,22.969,22.968,22.969     c12.665,0,22.968-10.303,22.968-22.969C345.933,140.457,335.63,130.154,322.965,130.154z M322.965,160.779     c-4.224,0-7.656-3.436-7.656-7.656c0-4.221,3.432-7.656,7.656-7.656s7.656,3.436,7.656,7.656     C330.621,157.344,327.189,160.779,322.965,160.779z" fill="#FFFFFF"/>
			<path d="M384.214,130.155c-12.665-0.001-22.968,10.302-22.968,22.968s10.303,22.969,22.968,22.969     c12.665,0,22.968-10.303,22.968-22.969C407.182,140.458,396.879,130.155,384.214,130.155z M384.214,160.779     c-4.224,0-7.656-3.436-7.656-7.656c0-4.221,3.432-7.656,7.656-7.656s7.656,3.436,7.656,7.656     C391.87,157.344,388.438,160.779,384.214,160.779z" fill="#FFFFFF"/>
			<path d="M322.965,267.964c12.665,0,22.968-10.303,22.968-22.968s-10.302-22.968-22.968-22.968s-22.968,10.303-22.968,22.968     C299.997,257.661,310.3,267.964,322.965,267.964z M322.965,237.34c4.224,0,7.656,3.436,7.656,7.656     c0,4.22-3.431,7.656-7.656,7.656c-4.224,0-7.656-3.436-7.656-7.656C315.309,240.776,318.741,237.34,322.965,237.34z" fill="#FFFFFF"/>
			<path d="M322.965,329.213c12.665,0,22.968-10.303,22.968-22.968c0.001-12.665-10.302-22.968-22.968-22.968     s-22.968,10.303-22.968,22.968S310.3,329.213,322.965,329.213z M322.965,298.59c4.224,0,7.656,3.436,7.656,7.656     c0,4.22-3.431,7.656-7.656,7.656c-4.224,0-7.656-3.436-7.656-7.656C315.309,302.025,318.741,298.59,322.965,298.59z" fill="#FFFFFF"/>
			<path d="M384.214,336.062c12.217,0,22.161-9.94,22.161-22.161v-68.905c0-12.22-9.944-22.161-22.161-22.161     c-12.217,0-22.161,9.94-22.161,22.161v68.905C362.053,326.122,371.997,336.062,384.214,336.062z M375.75,244.997     c0-4.669,3.798-8.464,8.464-8.464c4.665,0,8.464,3.794,8.464,8.464v68.905c0,4.669-3.798,8.464-8.464,8.464     c-4.665,0-8.464-3.794-8.464-8.464V244.997z" fill="#FFFFFF"/>
			<rect x="338.278" y="30.624" width="30.625" height="15.312" fill="#FFFFFF"/>
			<path d="M488.589,130.45c0-28.004-22.781-50.786-50.782-50.786V53.421C437.807,23.963,413.837,0,384.379,0h-61.586     c-29.458,0-53.421,23.963-53.421,53.421v26.243H52.189c-28,0-50.785,22.782-50.785,50.786v239.202     c0,22.426,18.247,40.673,40.677,40.673h227.292v26.243c0,29.458,23.963,53.425,53.421,53.425h61.586     c29.458,0,53.428-23.967,53.428-53.425v-26.243h10.108c22.43,0,40.673-18.247,40.673-40.673L488.589,130.45L488.589,130.45z      M269.372,395.012H42.081v0.001c-13.989,0-25.365-11.376-25.365-25.361V310.15c9.163,8.963,21.677,14.51,35.473,14.51h217.183     V395.012z M269.372,232.591c-6.616,4.996-14.602,7.852-22.968,7.852c-21.107,0-38.281-17.174-38.281-38.281     s17.174-38.281,38.281-38.281c8.357,0,16.347,2.858,22.968,7.856V232.591z M269.372,153.765     c-7.121-3.38-14.945-5.195-22.968-5.195c-29.548,0-53.593,24.041-53.593,53.593s24.045,53.593,53.593,53.593     c8.027,0,15.851-1.815,22.968-5.193v58.786H52.189c-19.559,0-35.473-15.914-35.473-35.473V130.45     c0-19.559,15.914-35.473,35.473-35.473h217.183V153.765z M422.495,436.568c0,21.017-17.099,38.113-38.116,38.113h-61.586     c-21.017,0-38.109-17.095-38.109-38.112V206.716h137.811V436.568z M422.495,191.403h-137.81V53.421     c0-21.013,17.091-38.109,38.108-38.109h61.586c21.017,0,38.116,17.095,38.116,38.109V191.403z M437.807,94.977     c19.559,0,35.469,15.914,35.469,35.473v143.425c0,19.559-15.91,35.473-35.469,35.473V94.977z M473.277,369.652     c0,13.985-11.38,25.361-25.361,25.361h-10.108v-70.352c13.796,0,26.308-5.548,35.469-14.509V369.652z" fill="#FFFFFF"/>
			<rect x="47.344" y="362.941" width="76.561" height="15.312" fill="#FFFFFF"/>
			<rect x="139.218" y="362.941" width="22.968" height="15.312" fill="#FFFFFF"/>
			<rect x="177.499" y="362.941" width="22.968" height="15.312" fill="#FFFFFF"/>
		</g>
	</g>
</g>
<g>
</g>
<g>
</g>
<g>
</g>
<g>
</g>
<g>
</g>
<g>
</g>
<g>
</g>
<g>
</g>
<g>
</g>
<g>
</g>
<g>
</g>
<g>
</g>
<g>
</g>
<g>
</g>
<g>
</g>
</svg>
