<?xml version="1.0" encoding="iso-8859-1"?>
<!-- Generator: Adobe Illustrator 19.0.0, SVG Export Plug-In . SVG Version: 6.00 Build 0)  -->
<svg xmlns="http://www.w3.org/2000/svg" xmlns:xlink="http://www.w3.org/1999/xlink" version="1.1" id="Capa_1" x="0px" y="0px" viewBox="0 0 512 512" style="enable-background:new 0 0 512 512;" xml:space="preserve" width="512px" height="512px">
<g>
	<g>
		<path d="M503.742,55.054H8.258C3.694,55.054,0,58.748,0,63.312c0,66.373,112.447,118.366,256,118.366s256-51.993,256-118.366    C512,58.748,508.3,55.054,503.742,55.054z M256,165.161c-123.287,0-228.402-42.072-238.664-93.591h477.327    C484.402,123.089,379.287,165.161,256,165.161z" fill="#FFFFFF"/>
	</g>
</g>
<g>
	<g>
		<path d="M283.527,0h-55.054c-4.564,0-8.258,3.694-8.258,8.258v55.054c0,4.564,3.694,8.258,8.258,8.258    c4.564,0,8.258-3.694,8.258-8.258V16.516h38.538v46.796c0,4.564,3.7,8.258,8.258,8.258c4.558,0,8.258-3.694,8.258-8.258V8.258    C291.785,3.694,288.085,0,283.527,0z" fill="#FFFFFF"/>
	</g>
</g>
<g>
	<g>
		<path d="M200.946,27.527c-4.564,0-8.258,3.694-8.258,8.258v27.527c0,4.564,3.694,8.258,8.258,8.258s8.258-3.694,8.258-8.258    V35.785C209.204,31.221,205.51,27.527,200.946,27.527z" fill="#FFFFFF"/>
	</g>
</g>
<g>
	<g>
		<path d="M311.054,27.527c-4.558,0-8.258,3.694-8.258,8.258v27.527c0,4.564,3.7,8.258,8.258,8.258c4.558,0,8.258-3.694,8.258-8.258    V35.785C319.312,31.221,315.612,27.527,311.054,27.527z" fill="#FFFFFF"/>
	</g>
</g>
<g>
	<g>
		<path d="M448.688,126.624c-4.558,0-8.258,3.694-8.258,8.258v360.602H71.57V134.882c0-4.564-3.694-8.258-8.258-8.258    s-8.258,3.694-8.258,8.258v368.86c0,4.558,3.694,8.258,8.258,8.258h385.376c4.558,0,8.258-3.7,8.258-8.258v-368.86    C456.946,130.318,453.247,126.624,448.688,126.624z" fill="#FFFFFF"/>
	</g>
</g>
<g>
	<g>
		<path d="M448.71,358.4l-384.826-1.096c-0.005,0-0.017,0-0.022,0c-4.553,0-8.247,3.683-8.258,8.236    c-0.011,4.558,3.678,8.269,8.236,8.28l384.826,1.096c0.006,0,0.017,0,0.022,0c4.547,0,8.247-3.683,8.258-8.236    C456.957,362.122,453.274,358.411,448.71,358.4z" fill="#FFFFFF"/>
	</g>
</g>
<g>
	<g>
		<path d="M256,165.161c-4.564,0-8.258,3.694-8.258,8.258v192.688c0,4.558,3.694,8.258,8.258,8.258s8.258-3.7,8.258-8.258V173.419    C264.258,168.855,260.564,165.161,256,165.161z" fill="#FFFFFF"/>
	</g>
</g>
<g>
	<g>
		<path d="M283.527,247.742c-4.558,0-8.258,3.694-8.258,8.258v27.527c0,4.558,3.7,8.258,8.258,8.258c4.558,0,8.258-3.7,8.258-8.258    V256C291.785,251.436,288.085,247.742,283.527,247.742z" fill="#FFFFFF"/>
	</g>
</g>
<g>
	<g>
		<path d="M228.473,247.742c-4.564,0-8.258,3.694-8.258,8.258v27.527c0,4.558,3.694,8.258,8.258,8.258    c4.564,0,8.258-3.7,8.258-8.258V256C236.731,251.436,233.037,247.742,228.473,247.742z" fill="#FFFFFF"/>
	</g>
</g>
<g>
	<g>
		<path d="M448.688,467.957H63.312c-4.564,0-8.258,3.7-8.258,8.258s3.694,8.258,8.258,8.258h385.376c4.558,0,8.258-3.7,8.258-8.258    S453.247,467.957,448.688,467.957z" fill="#FFFFFF"/>
	</g>
</g>
<g>
	<g>
		<path d="M256,413.178c-4.564,0-8.258,3.975-8.258,8.533c0,4.558,3.694,8.258,8.258,8.258s8.258-3.7,8.258-8.258v-0.55    C264.258,416.603,260.564,413.178,256,413.178z" fill="#FFFFFF"/>
	</g>
</g>
<g>
	<g>
		<path d="M119.505,110.19c-35.047-4.867-48.811-23.244-49.455-24.13c-2.626-3.694-7.735-4.591-11.468-1.982    c-3.738,2.615-4.647,7.763-2.031,11.501c0.71,1.018,17.97,25.033,60.68,30.968c0.385,0.055,0.765,0.077,1.145,0.077    c4.057,0,7.592-2.989,8.17-7.118C127.174,114.991,124.02,110.818,119.505,110.19z" fill="#FFFFFF"/>
	</g>
</g>
<g>
</g>
<g>
</g>
<g>
</g>
<g>
</g>
<g>
</g>
<g>
</g>
<g>
</g>
<g>
</g>
<g>
</g>
<g>
</g>
<g>
</g>
<g>
</g>
<g>
</g>
<g>
</g>
<g>
</g>
</svg>
