<?xml version="1.0" encoding="iso-8859-1"?>
<!-- Generator: Adobe Illustrator 19.0.0, SVG Export Plug-In . SVG Version: 6.00 Build 0)  -->
<svg xmlns="http://www.w3.org/2000/svg" xmlns:xlink="http://www.w3.org/1999/xlink" version="1.1" id="Capa_1" x="0px" y="0px" viewBox="0 0 296.6 296.6" style="enable-background:new 0 0 296.6 296.6;" xml:space="preserve" width="512px" height="512px">
<g>
	<g>
		<path d="M288.1,34.163H35.906c-4.694,0-8.5,3.806-8.5,8.5v4.374H16.088v8.519H8.5c-4.694,0-8.5,3.806-8.5,8.5s3.806,8.5,8.5,8.5    h7.588v9.836h11.318V241.83v12.108c0,4.694,3.806,8.5,8.5,8.5s8.5-3.806,8.5-8.5v-3.608H279.6v3.608c0,4.694,3.806,8.5,8.5,8.5    s8.5-3.806,8.5-8.5v-12.108V42.663C296.6,37.968,292.794,34.163,288.1,34.163z M87.479,51.163h24.824V233.33H87.479V51.163z     M70.479,233.329H44.406V51.163h26.072L70.479,233.329L70.479,233.329z M129.303,51.163h24.824V233.33h-24.824V51.163z     M171.127,51.163h24.824V233.33h-24.824V51.163z M212.951,51.163h24.824V233.33h-24.824V51.163z M254.775,233.329V51.163H279.6    V233.33h-24.825V233.329z" fill="#FFFFFF"/>
	</g>
	<g>
	</g>
	<g>
	</g>
	<g>
	</g>
	<g>
	</g>
	<g>
	</g>
	<g>
	</g>
	<g>
	</g>
	<g>
	</g>
	<g>
	</g>
	<g>
	</g>
	<g>
	</g>
	<g>
	</g>
	<g>
	</g>
	<g>
	</g>
	<g>
	</g>
</g>
<g>
</g>
<g>
</g>
<g>
</g>
<g>
</g>
<g>
</g>
<g>
</g>
<g>
</g>
<g>
</g>
<g>
</g>
<g>
</g>
<g>
</g>
<g>
</g>
<g>
</g>
<g>
</g>
<g>
</g>
</svg>
