<?xml version="1.0" encoding="iso-8859-1"?>
<!-- Generator: Adobe Illustrator 19.0.0, SVG Export Plug-In . SVG Version: 6.00 Build 0)  -->
<svg xmlns="http://www.w3.org/2000/svg" xmlns:xlink="http://www.w3.org/1999/xlink" version="1.1" id="Layer_1" x="0px" y="0px" viewBox="0 0 512.001 512.001" style="enable-background:new 0 0 512.001 512.001;" xml:space="preserve" width="512px" height="512px">
<g>
	<g>
		<path d="M230.479,170.218c-2.07-2.07-4.942-3.261-7.869-3.261s-5.799,1.191-7.869,3.261c-2.07,2.07-3.261,4.942-3.261,7.869    s1.191,5.799,3.261,7.869s4.942,3.261,7.869,3.261s5.799-1.191,7.869-3.261c2.07-2.07,3.261-4.942,3.261-7.869    S232.549,172.288,230.479,170.218z" fill="#FFFFFF"/>
	</g>
</g>
<g>
	<g>
		<path d="M356.175,166.957H256.001c-6.147,0-11.13,4.983-11.13,11.13s4.983,11.13,11.13,11.13h100.174    c6.137,0,11.13,4.993,11.13,11.13s-4.993,11.13-11.13,11.13H155.827c-6.137,0-11.13-4.993-11.13-11.13s4.993-11.13,11.13-11.13    h33.391c6.147,0,11.13-4.983,11.13-11.13s-4.983-11.13-11.13-11.13h-33.391c-18.412,0-33.391,14.979-33.391,33.391    c0,18.412,14.979,33.391,33.391,33.391h89.043v155.826h-11.13c-6.147,0-11.13,4.983-11.13,11.13c0,6.147,4.983,11.13,11.13,11.13    h44.522c6.147,0,11.13-4.983,11.13-11.13c0-6.147-4.983-11.13-11.13-11.13h-11.13V233.739h89.043    c18.412,0,33.391-14.979,33.391-33.391C389.566,181.936,374.587,166.957,356.175,166.957z" fill="#FFFFFF"/>
	</g>
</g>
<g>
	<g>
		<path d="M508.741,103.434c-4.346-4.346-11.394-4.346-15.742,0l-22.261,22.261c-2.086,2.087-3.259,4.919-3.259,7.87V256H322.783    c-6.147,0-11.13,4.983-11.13,11.13v44.522v89.044c0,6.147,4.983,11.13,11.13,11.13s11.13-4.983,11.13-11.13v-77.913h133.565    v77.913c0,6.147,4.983,11.13,11.13,11.13s11.13-4.983,11.13-11.13v-89.044v-44.522c0-0.472-0.039-0.935-0.096-1.391    c0.057-0.456,0.096-0.919,0.096-1.391V138.176l19.001-19.001C513.087,114.828,513.087,107.781,508.741,103.434z M467.479,300.522    H333.914v-22.261h133.565V300.522z" fill="#FFFFFF"/>
	</g>
</g>
<g>
	<g>
		<path d="M189.218,256H44.523V133.565c0-2.952-1.173-5.783-3.26-7.87l-22.261-22.261c-4.346-4.346-11.394-4.346-15.742,0    c-4.346,4.346-4.346,11.394,0,15.742l19.002,19v126.172c0,0.472,0.039,0.935,0.096,1.391c-0.057,0.456-0.096,0.919-0.096,1.391    v44.522v89.044c0,6.147,4.983,11.13,11.13,11.13s11.13-4.983,11.13-11.13v-77.913h133.565v77.913c0,6.147,4.983,11.13,11.13,11.13    s11.13-4.983,11.13-11.13v-89.044v-44.522C200.349,260.983,195.366,256,189.218,256z M178.088,300.522H44.523v-22.261h133.565    V300.522z" fill="#FFFFFF"/>
	</g>
</g>
<g>
</g>
<g>
</g>
<g>
</g>
<g>
</g>
<g>
</g>
<g>
</g>
<g>
</g>
<g>
</g>
<g>
</g>
<g>
</g>
<g>
</g>
<g>
</g>
<g>
</g>
<g>
</g>
<g>
</g>
</svg>
